<?xml version="1.0" encoding="UTF-8" standalone="no"?>
<!DOCTYPE svg PUBLIC "-//W3C//DTD SVG 1.1//EN"
 "http://www.w3.org/Graphics/SVG/1.1/DTD/svg11.dtd">
<!-- Generated by graphviz version 12.2.1 (20241206.2353)
 -->
<!-- Title: Level_1_DFD Pages: 1 -->
<svg width="576pt" height="131pt"
 viewBox="0.00 0.00 576.00 130.63" xmlns="http://www.w3.org/2000/svg" xmlns:xlink="http://www.w3.org/1999/xlink">
<g id="graph0" class="graph" transform="scale(0.37633 0.37633) rotate(0) translate(4 343.11)">
<title>Level_1_DFD</title>
<polygon fill="white" stroke="none" points="-4,4 -4,-343.11 1526.57,-343.11 1526.57,4 -4,4"/>
<!-- User -->
<g id="node1" class="node">
<title>User</title>
<polygon fill="none" stroke="black" points="54,-105.18 0,-105.18 0,-69.18 54,-69.18 54,-105.18"/>
<text text-anchor="middle" x="27" y="-82.13" font-family="Times New Roman,serif" font-size="14.00">User</text>
</g>
<!-- P1 -->
<g id="node4" class="node">
<title>P1</title>
<ellipse fill="none" stroke="black" cx="274.43" cy="-219.18" rx="119.93" ry="119.93"/>
<text text-anchor="middle" x="274.43" y="-214.13" font-family="Times New Roman,serif" font-size="14.00">P1: Receive &amp; Validate Input</text>
</g>
<!-- User&#45;&gt;P1 -->
<g id="edge1" class="edge">
<title>User&#45;&gt;P1</title>
<path fill="none" stroke="black" d="M54.27,-101.3C79.52,-114.89 119.49,-136.38 158.42,-157.32"/>
<polygon fill="black" stroke="black" points="156.49,-160.26 166.95,-161.91 159.8,-154.09 156.49,-160.26"/>
<text text-anchor="middle" x="104.25" y="-148.47" font-family="Times New Roman,serif" font-size="14.00">Ingredients </text>
</g>
<!-- Unsplash -->
<g id="node2" class="node">
<title>Unsplash</title>
<polygon fill="none" stroke="black" points="1518.07,-138.18 1427.07,-138.18 1427.07,-102.18 1518.07,-102.18 1518.07,-138.18"/>
<text text-anchor="middle" x="1472.57" y="-115.13" font-family="Times New Roman,serif" font-size="14.00">Unsplash API</text>
</g>
<!-- P3 -->
<g id="node6" class="node">
<title>P3</title>
<ellipse fill="none" stroke="black" cx="1202.64" cy="-87.18" rx="87.18" ry="87.18"/>
<text text-anchor="middle" x="1202.64" y="-82.13" font-family="Times New Roman,serif" font-size="14.00">P3: Generate Output</text>
</g>
<!-- Unsplash&#45;&gt;P3 -->
<g id="edge8" class="edge">
<title>Unsplash&#45;&gt;P3</title>
<path fill="none" stroke="black" d="M1426.69,-108.88C1419.33,-107.29 1411.76,-105.82 1404.57,-104.68 1371.16,-99.39 1334.35,-95.59 1301.46,-92.93"/>
<polygon fill="black" stroke="black" points="1301.76,-89.44 1291.52,-92.15 1301.21,-96.42 1301.76,-89.44"/>
<text text-anchor="middle" x="1356.19" y="-107.88" font-family="Times New Roman,serif" font-size="14.00">Image URLs</text>
</g>
<!-- LLM -->
<g id="node3" class="node">
<title>LLM</title>
<polygon fill="none" stroke="black" points="1522.57,-71.18 1422.57,-71.18 1422.57,-35.18 1522.57,-35.18 1522.57,-71.18"/>
<text text-anchor="middle" x="1472.57" y="-48.13" font-family="Times New Roman,serif" font-size="14.00">Gemma3 LLM</text>
</g>
<!-- LLM&#45;&gt;P3 -->
<g id="edge10" class="edge">
<title>LLM&#45;&gt;P3</title>
<path fill="none" stroke="black" d="M1422.37,-42.74C1389.6,-37.5 1345.76,-33.75 1307.82,-41.68 1302.66,-42.76 1297.44,-44.1 1292.23,-45.66"/>
<polygon fill="black" stroke="black" points="1291.45,-42.23 1283.02,-48.64 1293.61,-48.89 1291.45,-42.23"/>
<text text-anchor="middle" x="1356.19" y="-44.88" font-family="Times New Roman,serif" font-size="14.00">Generated Recipe</text>
</g>
<!-- D1 -->
<g id="node7" class="node">
<title>D1</title>
<path fill="none" stroke="black" d="M679.87,-244.91C679.87,-246.71 657.46,-248.18 629.87,-248.18 602.28,-248.18 579.87,-246.71 579.87,-244.91 579.87,-244.91 579.87,-215.45 579.87,-215.45 579.87,-213.64 602.28,-212.18 629.87,-212.18 657.46,-212.18 679.87,-213.64 679.87,-215.45 679.87,-215.45 679.87,-244.91 679.87,-244.91"/>
<path fill="none" stroke="black" d="M679.87,-244.91C679.87,-243.1 657.46,-241.63 629.87,-241.63 602.28,-241.63 579.87,-243.1 579.87,-244.91"/>
<text text-anchor="middle" x="629.87" y="-225.13" font-family="Times New Roman,serif" font-size="14.00">D1: Recipe DB</text>
</g>
<!-- P1&#45;&gt;D1 -->
<g id="edge2" class="edge">
<title>P1&#45;&gt;D1</title>
<path fill="none" stroke="black" d="M394.6,-222.89C452.92,-224.7 520.62,-226.81 568.2,-228.29"/>
<polygon fill="black" stroke="black" points="567.93,-231.78 578.03,-228.6 568.15,-224.79 567.93,-231.78"/>
<text text-anchor="middle" x="476.49" y="-230.43" font-family="Times New Roman,serif" font-size="14.00">Cleaned Ingredient List</text>
</g>
<!-- D2 -->
<g id="node8" class="node">
<title>D2</title>
<path fill="none" stroke="black" d="M685.12,-190.91C685.12,-192.71 660.35,-194.18 629.87,-194.18 599.38,-194.18 574.62,-192.71 574.62,-190.91 574.62,-190.91 574.62,-161.45 574.62,-161.45 574.62,-159.64 599.38,-158.18 629.87,-158.18 660.35,-158.18 685.12,-159.64 685.12,-161.45 685.12,-161.45 685.12,-190.91 685.12,-190.91"/>
<path fill="none" stroke="black" d="M685.12,-190.91C685.12,-189.1 660.35,-187.63 629.87,-187.63 599.38,-187.63 574.62,-189.1 574.62,-190.91"/>
<text text-anchor="middle" x="629.87" y="-171.13" font-family="Times New Roman,serif" font-size="14.00">D2: FAISS Index</text>
</g>
<!-- P1&#45;&gt;D2 -->
<g id="edge3" class="edge">
<title>P1&#45;&gt;D2</title>
<path fill="none" stroke="black" d="M393.61,-204.8C449.97,-197.94 515.29,-190 562.77,-184.22"/>
<polygon fill="black" stroke="black" points="563.13,-187.7 572.64,-183.02 562.29,-180.75 563.13,-187.7"/>
<text text-anchor="middle" x="476.49" y="-204.73" font-family="Times New Roman,serif" font-size="14.00">Token List</text>
</g>
<!-- P2 -->
<g id="node5" class="node">
<title>P2</title>
<ellipse fill="none" stroke="black" cx="922.17" cy="-181.18" rx="81.55" ry="81.55"/>
<text text-anchor="middle" x="922.17" y="-176.13" font-family="Times New Roman,serif" font-size="14.00">P2: Match Recipes</text>
</g>
<!-- P2&#45;&gt;P3 -->
<g id="edge6" class="edge">
<title>P2&#45;&gt;P3</title>
<path fill="none" stroke="black" d="M1000,-155.24C1033.7,-143.87 1073.55,-130.41 1108.89,-118.49"/>
<polygon fill="black" stroke="black" points="1109.91,-121.84 1118.27,-115.32 1107.67,-115.2 1109.91,-121.84"/>
<text text-anchor="middle" x="1059.59" y="-148.56" font-family="Times New Roman,serif" font-size="14.00">Top&#45;5 Results</text>
</g>
<!-- P3&#45;&gt;User -->
<g id="edge11" class="edge">
<title>P3&#45;&gt;User</title>
<path fill="none" stroke="black" d="M1115.47,-79.67C1060.49,-75.51 987.69,-71.18 923.17,-71.18 273.43,-71.18 273.43,-71.18 273.43,-71.18 199.82,-71.18 114.05,-78.43 65.88,-83.17"/>
<polygon fill="black" stroke="black" points="65.58,-79.69 55.98,-84.17 66.28,-86.65 65.58,-79.69"/>
<text text-anchor="middle" x="629.87" y="-74.38" font-family="Times New Roman,serif" font-size="14.00">Recipe List + Thumbnails</text>
</g>
<!-- P3&#45;&gt;Unsplash -->
<g id="edge7" class="edge">
<title>P3&#45;&gt;Unsplash</title>
<path fill="none" stroke="black" d="M1283.92,-119.58C1291.9,-121.85 1299.95,-123.79 1307.82,-125.18 1350.16,-132.66 1361.6,-126.78 1404.57,-125.18 1408.18,-125.04 1411.9,-124.87 1415.65,-124.66"/>
<polygon fill="black" stroke="black" points="1415.63,-128.17 1425.4,-124.07 1415.2,-121.18 1415.63,-128.17"/>
<text text-anchor="middle" x="1356.19" y="-132.09" font-family="Times New Roman,serif" font-size="14.00">Unsplash Query</text>
</g>
<!-- P3&#45;&gt;LLM -->
<g id="edge9" class="edge">
<title>P3&#45;&gt;LLM</title>
<path fill="none" stroke="black" d="M1289.48,-76.02C1295.69,-75.23 1301.85,-74.44 1307.82,-73.68 1341.99,-69.32 1380.19,-64.54 1411.09,-60.69"/>
<polygon fill="black" stroke="black" points="1411.13,-64.21 1420.62,-59.5 1410.26,-57.26 1411.13,-64.21"/>
<text text-anchor="middle" x="1356.19" y="-76.88" font-family="Times New Roman,serif" font-size="14.00">LLM Prompt</text>
</g>
<!-- D1&#45;&gt;P2 -->
<g id="edge5" class="edge">
<title>D1&#45;&gt;P2</title>
<path fill="none" stroke="black" d="M680.21,-222.95C718.98,-217.15 774.32,-208.61 822.62,-200.18 825.26,-199.72 827.94,-199.24 830.65,-198.76"/>
<polygon fill="black" stroke="black" points="831.17,-202.22 840.38,-196.99 829.92,-195.33 831.17,-202.22"/>
<text text-anchor="middle" x="770.87" y="-219.58" font-family="Times New Roman,serif" font-size="14.00">Recipe Records</text>
</g>
<!-- D2&#45;&gt;P2 -->
<g id="edge4" class="edge">
<title>D2&#45;&gt;P2</title>
<path fill="none" stroke="black" d="M685.47,-177.12C725.76,-177.81 781.53,-178.77 828.72,-179.59"/>
<polygon fill="black" stroke="black" points="828.63,-183.08 838.68,-179.76 828.75,-176.09 828.63,-183.08"/>
<text text-anchor="middle" x="770.87" y="-182.62" font-family="Times New Roman,serif" font-size="14.00">Top&#45;15 Recipe IDs</text>
</g>
</g>
</svg>
